<?xml version="1.0" standalone="no"?><!DOCTYPE svg PUBLIC "-//W3C//DTD SVG 1.1//EN" "http://www.w3.org/Graphics/SVG/1.1/DTD/svg11.dtd"><svg t="1627740069763" class="icon" viewBox="0 0 1024 1024" version="1.1" xmlns="http://www.w3.org/2000/svg" p-id="3312" xmlns:xlink="http://www.w3.org/1999/xlink" width="200" height="200"><defs><style type="text/css"></style></defs><path d="M487.381333 499.797333a17.408 17.408 0 0 1 0 24.405334l-269.056 273.536a17.408 17.408 0 0 0 0 24.448l25.514667 25.941333a17.493333 17.493333 0 0 0 24.917333 0l318.549334-323.925333a17.408 17.408 0 0 0 0-24.405334L268.8 175.872a17.493333 17.493333 0 0 0-24.917333 0l-25.514667 25.941333a17.408 17.408 0 0 0 0 24.448l269.056 273.493334z" p-id="3313"></path><path d="M705.706667 499.797333a17.408 17.408 0 0 1 0 24.405334l-269.013334 273.536a17.408 17.408 0 0 0 0 24.448l25.472 25.941333a17.493333 17.493333 0 0 0 24.917334 0l318.592-323.925333a17.408 17.408 0 0 0 0-24.405334l-318.549334-323.925333a17.493333 17.493333 0 0 0-24.96 0l-25.472 25.941333a17.408 17.408 0 0 0 0 24.448l269.013334 273.493334z" p-id="3314"></path></svg>